<?xml version="1.0" encoding="UTF-8"?>
<svg id="Layer_1" xmlns="http://www.w3.org/2000/svg" version="1.1" viewBox="0 0 1400 1400">
  <!-- Generator: Adobe Illustrator 30.4.0, SVG Export Plug-In . SVG Version: 2.1.4 Build 226)  -->
  <defs>
    <style>
      .st0 {
        fill: #2563EB;
      }
    </style>
  </defs>
  <path class="st0" d="M1190.83,531.33c-33.54,76.04-85.24,140.28-148.8,192.36l-209.62,171.77c-20.98,17.19-36.25,40.92-36.37,68.39l-1.2,289.78c-.1,24.67-20.15,45.29-44.98,47.03l-89.32.11c-22.04.03-46-19.04-46.1-42.22l-1.35-300.03c-.1-22-11.89-41.16-28.1-54.52l-84.31-69.46-148.53-119.17c-103.62-83.14-179.33-223.32-182.83-357.24l-.05-186.74c0-13.34,18.74-18.86,29.56-16.83,73.47,13.78,125.4,88.04,126.27,162.46.59,50.18,8.14,97.29,29.26,143.39,28.17,61.5,71.96,113.04,127.74,151.47l107.22,76.32,115.05,83.17,226.03-162.44c40.67-29.23,73.88-66.13,99.71-108.58,35.8-58.83,50.89-124.89,48.23-192.96,4.68-46.74,23.81-88.07,58.33-118.77,20.27-17.84,43.26-30.54,70.19-34.27,13.82-1.91,26.98,7.25,26.95,21.96l-.41,171.89c-.15,63.51-16.63,124.29-42.58,183.13Z"/>
  <path class="st0" d="M497.95,455.08c-23.31-23.61-26.97-56.18-5.05-79.87,21.41-23.14,57.39-22.95,79.89.78l21.61,22.79,63.27,65.53c3.42,3.55,9.14,3.69,12.88-.15l214.9-220.72c21.87-22.46,57.18-21.32,77.53.62,21.25,22.91,18.85,57.74-4.56,78.49l-22.34,22.82-240.98,249.34c-18.73,14-44.72,14.29-61.41-2.1l-135.75-137.54Z"/>
</svg>